#!OML:ASF F:\VICON\USERDATA\INSTALL\rory3\rory3.ASF
:FULLY-SPECIFIED
:DEGREES
710
root -1.47797 16.5263 -2.59344 2.26357 -43.8329 5.59647
lowerback 22.4692 0.995125 -0.539663
upperback 10.552 0.917175 4.19699
thorax -1.0787 0.157177 4.612
lowerneck -15.1582 -0.331541 -9.79924
upperneck 34.7049 1.9 0.427849
head 14.4338 -0.54077 2.16802
rclavicle 3.57812e-014 6.36111e-015
rhumerus -24.6965 19.0407 -82.3169
rradius 74.6511
rwrist 22.0684
rhand -28.6957 20.5596
rfingers 7.12502
rthumb -2.05787 -9.4102
lclavicle 3.57812e-014 6.36111e-015
lhumerus -33.9203 -13.4672 95.0462
lradius 84.7855
lwrist -22.3434
lhand -43.1904 14.4054
lfingers 7.12502
lthumb -16.0417 43.7613
rfemur -46.8786 -8.71839 19.945
rtibia 53.4271
rfoot -7.90415 9.49999
rtoes 0.0587935
lfemur -86.4894 41.4709 -32.0726
ltibia 139.295
lfoot -13.0227 -12.8181
ltoes -14.499
711
root -1.52846 16.5554 -2.56478 2.48946 -43.64 5.67883
lowerback 22.477 0.962304 -0.440336
upperback 10.5409 0.896727 4.19218
thorax -1.09163 0.151844 4.55429
lowerneck -15.0621 -0.31739 -9.79119
upperneck 34.6948 1.91585 0.398639
head 14.4071 -0.534749 2.15647
rclavicle -1.90833e-014 1.59028e-014
rhumerus -24.7578 19.127 -82.3216
rradius 74.5352
rwrist 21.9632
rhand -28.9622 20.7615
rfingers 7.12502
rthumb -2.31519 -9.20572
lclavicle -1.90833e-014 1.59028e-014
lhumerus -33.8323 -13.5155 94.8911
lradius 84.4978
lwrist -22.3961
lhand -43.0412 14.7725
lfingers 7.12502
lthumb -15.898 44.1399
rfemur -46.7727 -8.64423 19.8871
rtibia 53.129
rfoot -7.79853 9.17914
rtoes 0.263347
lfemur -85.2427 41.8966 -31.7573
ltibia 138.951
lfoot -14.6167 -12.6157
ltoes -17.7793
712
root -1.57841 16.6024 -2.52696 2.38834 -43.4602 5.8934
lowerback 22.619 0.936082 -0.338247
upperback 10.591 0.879521 4.13669
thorax -1.10351 0.147073 4.44016
lowerneck -14.9499 -0.293828 -9.65086
upperneck 34.7185 1.94628 0.245699
head 14.3949 -0.523753 2.07403
rclavicle -1.59028e-013 7.79236e-014
rhumerus -24.8784 19.215 -82.3173
rradius 74.4904
rwrist 21.8346
rhand -29.0937 20.7071
rfingers 7.12502
rthumb -2.44222 -9.25869
lclavicle -1.59028e-013 7.79236e-014
lhumerus -33.7825 -13.6177 94.7636
lradius 84.2075
lwrist -22.2774
lhand -42.934 14.7791
lfingers 7.12502
lthumb -15.7948 44.1547
rfemur -46.3415 -8.76465 19.7165
rtibia 52.7716
rfoot -7.85808 9.05703
rtoes 0.150292
lfemur -83.8816 42.0608 -31.3217
ltibia 138.514
lfoot -15.7647 -12.6357
ltoes -20.4662
713
root -1.62603 16.6449 -2.48979 2.41919 -43.2977 6.08167
lowerback 22.6059 0.883212 -0.229299
upperback 10.6254 0.829334 4.06476
thorax -1.05363 0.127336 4.31091
lowerneck -14.8899 -0.244318 -9.65195
upperneck 34.7365 1.99999 0.279992
head 14.3848 -0.495849 2.09681
rclavicle 6.04305e-014 -9.70069e-014
rhumerus -24.903 19.3255 -82.3866
rradius 74.369
rwrist 21.6847
rhand -29.0566 20.5804
rfingers 7.12502
rthumb -2.40638 -9.38579
lclavicle 6.04305e-014 -9.70069e-014
lhumerus -33.6633 -13.6834 94.5807
lradius 83.9262
lwrist -21.8398
lhand -42.6407 14.1987
lfingers 7.12502
lthumb -15.5124 43.5965
rfemur -46.0634 -8.86224 19.5735
rtibia 52.4279
rfoot -7.67805 9.01331
rtoes 0.97204
lfemur -83.0515 41.9869 -30.9644
ltibia 138.134
lfoot -16.2945 -13.0156
ltoes -21.4882
714
root -1.67312 16.6781 -2.45881 2.56724 -43.1189 6.23621
lowerback 22.6008 0.837481 -0.163777
upperback 10.6085 0.784926 4.00671
thorax -1.06508 0.110917 4.22038
lowerneck -14.9193 -0.189534 -9.64774
upperneck 34.7643 2.08734 0.275305
head 14.3987 -0.459272 2.10897
rclavicle 3.18055e-015 -2.54444e-014
rhumerus -24.8721 19.4479 -82.4696
rradius 74.2194
rwrist 21.4497
rhand -28.984 20.3892
rfingers 7.12502
rthumb -2.33621 -9.57775
lclavicle 3.18055e-015 -2.54444e-014
lhumerus -33.5429 -13.6594 94.4119
lradius 83.7114
lwrist -21.5757
lhand -42.3055 13.7193
lfingers 7.12502
lthumb -15.1895 43.1417
rfemur -45.8883 -8.78959 19.4166
rtibia 52.0687
rfoot -7.46534 8.81817
rtoes 3.55142
lfemur -82.5644 41.7328 -30.6073
ltibia 137.782
lfoot -16.4685 -13.6517
ltoes -22.3482
715
root -1.71923 16.715 -2.43017 2.67523 -42.902 6.3615
lowerback 22.6882 0.804466 -0.18046
upperback 10.5698 0.746163 4.04279
thorax -1.14769 0.0924937 4.27875
lowerneck -14.8368 -0.141412 -9.67083
upperneck 34.7729 2.21826 0.0930613
head 14.3825 -0.430609 2.05845
rclavicle 1.90833e-014 1.11319e-014
rhumerus -24.8817 19.6555 -82.4112
rradius 74.0729
rwrist 21.1765
rhand -29.0018 20.4195
rfingers 7.12502
rthumb -2.35341 -9.54722
lclavicle 1.90833e-014 1.11319e-014
lhumerus -33.4886 -13.411 94.4298
lradius 83.4672
lwrist -21.7307
lhand -42.1068 13.626
lfingers 7.12502
lthumb -14.9981 43.0629
rfemur -45.6275 -8.76115 19.2825
rtibia 51.7019
rfoot -7.52976 8.58394
rtoes 4.92889
lfemur -82.2003 41.2957 -30.2319
ltibia 137.411
lfoot -16.1687 -14.2793
ltoes -23.9498
